<svg width="116" height="27" viewBox="0 0 116 27" fill="none" xmlns="http://www.w3.org/2000/svg">
<path d="M0.168789 10.9C0.168789 9.11467 0.567456 7.52 1.36479 6.116C2.17946 4.69467 3.28012 3.594 4.66679 2.814C6.07079 2.01667 7.63946 1.618 9.37279 1.618C11.4008 1.618 13.1775 2.138 14.7028 3.178C16.2281 4.218 17.2941 5.65667 17.9008 7.494H13.7148C13.2988 6.62733 12.7095 5.97733 11.9468 5.544C11.2015 5.11067 10.3348 4.894 9.34679 4.894C8.28946 4.894 7.34479 5.14533 6.51279 5.648C5.69812 6.13333 5.05679 6.82667 4.58879 7.728C4.13812 8.62933 3.91279 9.68667 3.91279 10.9C3.91279 12.096 4.13812 13.1533 4.58879 14.072C5.05679 14.9733 5.69812 15.6753 6.51279 16.178C7.34479 16.6633 8.28946 16.906 9.34679 16.906C10.3348 16.906 11.2015 16.6893 11.9468 16.256C12.7095 15.8053 13.2988 15.1467 13.7148 14.28H17.9008C17.2941 16.1347 16.2281 17.582 14.7028 18.622C13.1948 19.6447 11.4181 20.156 9.37279 20.156C7.63946 20.156 6.07079 19.766 4.66679 18.986C3.28012 18.1887 2.17946 17.088 1.36479 15.684C0.567456 14.28 0.168789 12.6853 0.168789 10.9ZM29.1218 5.388C30.2138 5.388 31.1845 5.63067 32.0338 6.116C32.8832 6.584 33.5418 7.286 34.0098 8.222C34.4952 9.14067 34.7378 10.25 34.7378 11.55V20H31.0978V12.044C31.0978 10.9 30.8118 10.0247 30.2398 9.418C29.6678 8.794 28.8878 8.482 27.8998 8.482C26.8945 8.482 26.0972 8.794 25.5078 9.418C24.9358 10.0247 24.6498 10.9 24.6498 12.044V20H21.0098V0.76H24.6498V7.39C25.1178 6.766 25.7418 6.28067 26.5218 5.934C27.3018 5.57 28.1685 5.388 29.1218 5.388ZM37.2633 12.746C37.2633 11.29 37.5493 9.99867 38.1213 8.872C38.7106 7.74533 39.4993 6.87867 40.4873 6.272C41.4926 5.66533 42.6106 5.362 43.8413 5.362C44.9159 5.362 45.8519 5.57867 46.6493 6.012C47.4639 6.44533 48.1139 6.99133 48.5993 7.65V5.596H52.2653V20H48.5993V17.894C48.1313 18.57 47.4813 19.1333 46.6493 19.584C45.8346 20.0173 44.8899 20.234 43.8153 20.234C42.6019 20.234 41.4926 19.922 40.4873 19.298C39.4993 18.674 38.7106 17.7987 38.1213 16.672C37.5493 15.528 37.2633 14.2193 37.2633 12.746ZM48.5993 12.798C48.5993 11.914 48.4259 11.16 48.0793 10.536C47.7326 9.89467 47.2646 9.40933 46.6753 9.08C46.0859 8.73333 45.4533 8.56 44.7773 8.56C44.1013 8.56 43.4773 8.72467 42.9053 9.054C42.3333 9.38333 41.8653 9.86867 41.5013 10.51C41.1546 11.134 40.9813 11.8793 40.9813 12.746C40.9813 13.6127 41.1546 14.3753 41.5013 15.034C41.8653 15.6753 42.3333 16.1693 42.9053 16.516C43.4946 16.8627 44.1186 17.036 44.7773 17.036C45.4533 17.036 46.0859 16.8713 46.6753 16.542C47.2646 16.1953 47.7326 15.71 48.0793 15.086C48.4259 14.4447 48.5993 13.682 48.5993 12.798ZM60.0584 8.586V15.554C60.0584 16.0393 60.171 16.3947 60.3964 16.62C60.639 16.828 61.0377 16.932 61.5924 16.932H63.2824V20H60.9944C57.9264 20 56.3924 18.5093 56.3924 15.528V8.586H54.6764V5.596H56.3924V2.034H60.0584V5.596H63.2824V8.586H60.0584ZM65.3544 12.876C65.3544 11.42 65.6404 10.146 66.2124 9.054C66.8018 7.94467 67.6078 7.09533 68.6304 6.506C69.6704 5.89933 70.8404 5.596 72.1404 5.596C73.4924 5.596 74.6538 5.908 75.6244 6.532C76.6124 7.156 77.3231 7.95333 77.7564 8.924V5.804H79.5764V20H77.7564V16.854C77.3058 17.8247 76.5864 18.6307 75.5984 19.272C74.6278 19.896 73.4664 20.208 72.1144 20.208C70.8318 20.208 69.6704 19.9047 68.6304 19.298C67.6078 18.6913 66.8018 17.8333 66.2124 16.724C65.6404 15.6147 65.3544 14.332 65.3544 12.876ZM77.7564 12.902C77.7564 11.758 77.5224 10.7527 77.0544 9.886C76.5864 9.01933 75.9451 8.352 75.1304 7.884C74.3331 7.416 73.4491 7.182 72.4784 7.182C71.4731 7.182 70.5718 7.40733 69.7744 7.858C68.9771 8.30867 68.3444 8.96733 67.8764 9.834C67.4258 10.6833 67.2004 11.6973 67.2004 12.876C67.2004 14.0373 67.4258 15.06 67.8764 15.944C68.3444 16.8107 68.9771 17.478 69.7744 17.946C70.5718 18.3967 71.4731 18.622 72.4784 18.622C73.4491 18.622 74.3331 18.388 75.1304 17.92C75.9451 17.452 76.5864 16.7847 77.0544 15.918C77.5224 15.0513 77.7564 14.046 77.7564 12.902ZM85.5254 8.924C85.976 7.97067 86.6867 7.182 87.6574 6.558C88.6454 5.91667 89.8154 5.596 91.1674 5.596C92.45 5.596 93.6027 5.89933 94.6254 6.506C95.6654 7.09533 96.4714 7.94467 97.0434 9.054C97.6327 10.146 97.9274 11.42 97.9274 12.876C97.9274 14.332 97.6327 15.6147 97.0434 16.724C96.4714 17.8333 95.6654 18.6913 94.6254 19.298C93.6027 19.9047 92.45 20.208 91.1674 20.208C89.8327 20.208 88.6714 19.896 87.6834 19.272C86.6954 18.6307 85.976 17.8333 85.5254 16.88V26.708H83.7314V5.804H85.5254V8.924ZM96.0814 12.876C96.0814 11.6973 95.8474 10.6833 95.3794 9.834C94.9287 8.96733 94.3047 8.30867 93.5074 7.858C92.71 7.40733 91.8087 7.182 90.8034 7.182C89.8327 7.182 88.94 7.416 88.1254 7.884C87.328 8.352 86.6954 9.01933 86.2274 9.886C85.7594 10.7527 85.5254 11.758 85.5254 12.902C85.5254 14.046 85.7594 15.0513 86.2274 15.918C86.6954 16.7847 87.328 17.452 88.1254 17.92C88.94 18.388 89.8327 18.622 90.8034 18.622C91.8087 18.622 92.71 18.3967 93.5074 17.946C94.3047 17.478 94.9287 16.8107 95.3794 15.944C95.8474 15.06 96.0814 14.0373 96.0814 12.876ZM103.07 8.924C103.521 7.97067 104.232 7.182 105.202 6.558C106.19 5.91667 107.36 5.596 108.712 5.596C109.995 5.596 111.148 5.89933 112.17 6.506C113.21 7.09533 114.016 7.94467 114.588 9.054C115.178 10.146 115.472 11.42 115.472 12.876C115.472 14.332 115.178 15.6147 114.588 16.724C114.016 17.8333 113.21 18.6913 112.17 19.298C111.148 19.9047 109.995 20.208 108.712 20.208C107.378 20.208 106.216 19.896 105.228 19.272C104.24 18.6307 103.521 17.8333 103.07 16.88V26.708H101.276V5.804H103.07V8.924ZM113.626 12.876C113.626 11.6973 113.392 10.6833 112.924 9.834C112.474 8.96733 111.85 8.30867 111.052 7.858C110.255 7.40733 109.354 7.182 108.348 7.182C107.378 7.182 106.485 7.416 105.67 7.884C104.873 8.352 104.24 9.01933 103.772 9.886C103.304 10.7527 103.07 11.758 103.07 12.902C103.07 14.046 103.304 15.0513 103.772 15.918C104.24 16.7847 104.873 17.452 105.67 17.92C106.485 18.388 107.378 18.622 108.348 18.622C109.354 18.622 110.255 18.3967 111.052 17.946C111.85 17.478 112.474 16.8107 112.924 15.944C113.392 15.06 113.626 14.0373 113.626 12.876Z" fill="white"/>
</svg>
